<svg width="200" height="200" viewBox="0 0 200 200" fill="none" xmlns="http://www.w3.org/2000/svg">
<circle cx="100" cy="100" r="100" fill="#F7C59F"/>
<g clip-path="url(#clip0_8_78)">
<path d="M99.5 113.625C116.207 113.625 129.75 100.082 129.75 83.375C129.75 66.6684 116.207 53.125 99.5 53.125C82.7934 53.125 69.25 66.6684 69.25 83.375C69.25 100.082 82.7934 113.625 99.5 113.625Z" stroke="#2A324B" stroke-width="10" stroke-miterlimit="10"/>
<path d="M53.6472 140.089C58.296 132.043 64.9806 125.361 73.0293 120.716C81.078 116.07 90.2075 113.625 99.5005 113.625C108.794 113.625 117.923 116.071 125.972 120.716C134.02 125.362 140.705 132.043 145.353 140.09" stroke="#2A324B" stroke-width="10" stroke-linecap="round" stroke-linejoin="round"/>
<g clip-path="url(#clip1_8_78)">
<path d="M99.25 68.125C96.91 68.125 94.6659 69.0546 93.0113 70.7092C91.3566 72.3638 90.4271 74.6079 90.4271 76.9479C90.4271 77.6165 90.6927 78.2577 91.1654 78.7304C91.6382 79.2032 92.2794 79.4688 92.9479 79.4688C93.6165 79.4688 94.2577 79.2032 94.7304 78.7304C95.2032 78.2577 95.4688 77.6165 95.4688 76.9479C95.4688 76.2001 95.6905 75.469 96.106 74.8472C96.5215 74.2253 97.112 73.7407 97.803 73.4545C98.4939 73.1683 99.2542 73.0934 99.9877 73.2393C100.721 73.3852 101.395 73.7454 101.924 74.2742C102.453 74.803 102.813 75.4767 102.959 76.2102C103.104 76.9437 103.03 77.704 102.743 78.3949C102.457 79.0859 101.973 79.6764 101.351 80.0919C100.729 80.5074 99.9979 80.7292 99.25 80.7292C98.5814 80.7292 97.9403 80.9948 97.4675 81.4675C96.9948 81.9403 96.7292 82.5814 96.7292 83.25V88.2917C96.7292 88.9602 96.9948 89.6014 97.4675 90.0742C97.9403 90.5469 98.5814 90.8125 99.25 90.8125C99.9186 90.8125 100.56 90.5469 101.032 90.0742C101.505 89.6014 101.771 88.9602 101.771 88.2917V85.3675C103.808 84.7726 105.561 83.4614 106.708 81.6756C107.854 79.8898 108.317 77.7497 108.01 75.6499C107.703 73.55 106.647 71.6319 105.037 70.249C103.428 68.8662 101.372 68.1118 99.25 68.125Z" fill="#2A324B"/>
<path d="M99.25 98.375C100.642 98.375 101.771 97.2464 101.771 95.8542C101.771 94.4619 100.642 93.3333 99.25 93.3333C97.8578 93.3333 96.7292 94.4619 96.7292 95.8542C96.7292 97.2464 97.8578 98.375 99.25 98.375Z" fill="#2A324B"/>
</g>
</g>
<defs>
<clipPath id="clip0_8_78">
<rect width="121" height="121" fill="white" transform="translate(39 38)"/>
</clipPath>
<clipPath id="clip1_8_78">
<rect width="60.5" height="60.5" fill="white" transform="translate(69 53)"/>
</clipPath>
</defs>
</svg>
